<?xml version="1.0" encoding="UTF-8" standalone="no"?>
<svg
   xmlns:dc="http://purl.org/dc/elements/1.1/"
   xmlns:cc="http://creativecommons.org/ns#"
   xmlns:rdf="http://www.w3.org/1999/02/22-rdf-syntax-ns#"
   xmlns:svg="http://www.w3.org/2000/svg"
   xmlns="http://www.w3.org/2000/svg"
   xmlns:sodipodi="http://sodipodi.sourceforge.net/DTD/sodipodi-0.dtd"
   xmlns:inkscape="http://www.inkscape.org/namespaces/inkscape"
   width="428mm"
   height="312mm"
   viewBox="0 0 428 312"
   version="1.1"
   preserveAspectRatio="xMidYMid meet"
   id="svg47"
   sodipodi:docname="Behuizing.svg"
   inkscape:version="1.0.2-2 (e86c870879, 2021-01-15)">
  <metadata
     id="metadata53">
    <rdf:RDF>
      <cc:Work
         rdf:about="">
        <dc:format>image/svg+xml</dc:format>
        <dc:type
           rdf:resource="http://purl.org/dc/dcmitype/StillImage" />
        <dc:title></dc:title>
      </cc:Work>
    </rdf:RDF>
  </metadata>
  <defs
     id="defs51" />
  <sodipodi:namedview
     pagecolor="#ffffff"
     bordercolor="#666666"
     borderopacity="1"
     objecttolerance="10"
     gridtolerance="10"
     guidetolerance="10"
     inkscape:pageopacity="0"
     inkscape:pageshadow="2"
     inkscape:window-width="1920"
     inkscape:window-height="1001"
     id="namedview49"
     showgrid="false"
     inkscape:zoom="11.261752"
     inkscape:cx="1388.5725"
     inkscape:cy="129.48889"
     inkscape:window-x="-9"
     inkscape:window-y="-9"
     inkscape:window-maximized="1"
     inkscape:current-layer="svg47" />
  <path
     d="m 0,252.75 v 26.5 h 3 v 19.5 H 0 V 312 h 19.25 v -3 h 19.5 v 3 h 19.5 v -3 h 19.5 v 3 h 19.5 v -3 h 19.5 v 3 H 136 v -32.75 -46 m 3,65.5 h -6 v -19.5 h 6 M 116.75,263 v 6 h -19.5 v -6 m -19.5,0 v 6 h -19.5 v -6 m -19.5,0 v 6 h -19.5 v -6 m 97.5,3 H 136 m -58.25,0 h 19.5 m -58.5,0 h 19.5 M 0,266 h 19.25"
     id="front_outsideCutPath"
     stroke="#FF0000"
     stroke-width="0.5"
     style="fill:none;fill-rule:evenodd;stroke:#ff0000;stroke-width:0.5;stroke-linecap:round"
     vector-effect="non-scaling-stroke" />
  <path
     d="m 292,263.25 v 35.5 h -3 V 312 h -6.75 -19.5 v -3 h -19.5 v 3 h -19.5 v -3 h -19.5 v 3 h -19.5 v -3 h -19.5 v 3 H 139 V 298.75 M 165.25,266 H 139 h 6.75 m 117,-3 v 6 h -19.5 v -6 m -19.5,0 v 6 h -19.5 v -6 m -19.5,0 v 6 h -19.5 v -6 M 289,252.75 v 26.5 h 3 m -153,0 v -26.5 M 262.75,266 H 289 m -65.25,0 h 19.5 m -58.5,0 h 19.5"
     id="left_outsideCutPath"
     stroke="#FF0000"
     stroke-width="0.5"
     style="fill:none;fill-rule:evenodd;stroke:#ff0000;stroke-width:0.5;stroke-linecap:round"
     vector-effect="non-scaling-stroke" />
  <path
     d="m 408.75,153 v 6 H 425 v 6.75 19.5 h 3 v 19.5 h -3 v 19.5 h 3 v 19.5 h -3 v 19.5 h 3 v 19.5 h -3 V 309 h -16.25 v 3 h -19.5 v -3 h -19.5 v 3 h -19.5 v -3 h -19.5 v 3 h -19.5 v -3 H 295 v -6.75 -19.5 h -3 m 0,-30 v -28.5 h 3 v -19.5 h -3 v -19.5 h 3 V 159 h 16.25 v -6 m 78,0 v 6 h -19.5 v -6 m -19.5,0 v 6 h -19.5 v -6 M 292,263.25 h 3 v -19.5 h -3 M 389.25,156 h 19.5 m -58.5,0 h 19.5 m -58.5,0 h 19.5"
     id="top_outsideCutPath"
     stroke="#FF0000"
     stroke-width="0.5"
     style="fill:none;fill-rule:evenodd;stroke:#ff0000;stroke-width:0.5;stroke-linecap:round"
     vector-effect="non-scaling-stroke" />
  <path
     d="m 0,252.75 h 3 v -19.5 H 0 V 220 h 19.25 v 3 h 19.5 v -3 h 19.5 v 3 h 19.5 v -3 h 19.5 v 3 h 19.5 v -3 H 136 v 13.25 m 3,19.5 h -6 v -19.5 h 6 M 19.25,263 h 19.5 m 19.5,0 h 19.5 m 19.5,0 h 19.5"
     id="back_outsideCutPath"
     stroke="#FF0000"
     stroke-width="0.5"
     style="fill:none;fill-rule:evenodd;stroke:#ff0000;stroke-width:0.5;stroke-linecap:round"
     vector-effect="non-scaling-stroke" />
  <path
     d="M 139,233.25 V 220 h 6.75 19.5 v 3 h 19.5 v -3 h 19.5 v 3 h 19.5 v -3 h 19.5 v 3 h 19.5 v -3 H 289 v 13.25 h 3 M 165.25,263 h 19.5 m 19.5,0 h 19.5 m 19.5,0 h 19.5 M 289,252.75 h 3"
     id="right_outsideCutPath"
     stroke="#FF0000"
     stroke-width="0.5"
     style="fill:none;fill-rule:evenodd;stroke:#ff0000;stroke-width:0.5;stroke-linecap:round"
     vector-effect="non-scaling-stroke" />
  <path
     d="M 311.25,153 H 295 v -6.75 -19.5 h -3 v -19.5 h 3 v -19.5 h -3 v -19.5 h 3 v -19.5 h -3 v -19.5 h 3 V 3 h 16.25 V 0 h 19.5 v 3 h 19.5 V 0 h 19.5 v 3 h 19.5 V 0 h 19.5 V 3 H 425 v 6.75 19.5 h 3 v 19.5 h -3 v 19.5 h 3 v 19.5 h -3 v 19.5 h 3 v 19.5 h -3 V 153 h -16.25 m -78,0 h 19.5 m 19.5,0 h 19.5"
     id="bottom_outsideCutPath"
     stroke="#FF0000"
     stroke-width="0.5"
     style="fill:none;fill-rule:evenodd;stroke:#ff0000;stroke-width:0.5;stroke-linecap:round"
     vector-effect="non-scaling-stroke" />
  <rect
     style="fill:none;fill-opacity:1;stroke:#ff0000;stroke-width:0.443736;stroke-miterlimit:4;stroke-dasharray:none"
     id="rect888"
     width="39.556263"
     height="99.556259"
     x="315.86472"
     y="26.669975" />
  <circle
     style="fill:none;fill-opacity:1;stroke:#ff0000;stroke-width:0.264583;stroke-linejoin:bevel;stroke-miterlimit:4;stroke-dasharray:none;paint-order:stroke fill markers"
     id="path977"
     cx="377.66562"
     cy="48.303604"
     r="7" />
  <circle
     style="fill:none;fill-opacity:1;stroke:#ff0000;stroke-width:0.264583;stroke-miterlimit:4;stroke-dasharray:none"
     id="path898-0-7-6"
     cx="362.77164"
     cy="124.40635"
     r="2" />
  <circle
     style="fill:none;fill-opacity:1;stroke:#ff0000;stroke-width:0.264583;stroke-miterlimit:4;stroke-dasharray:none"
     id="path898-0-7-6-9"
     cx="308.47586"
     cy="124.14218"
     r="2" />
  <circle
     style="fill:none;fill-opacity:1;stroke:#ff0000;stroke-width:0.264583;stroke-miterlimit:4;stroke-dasharray:none"
     id="path898-0-7-6-2"
     cx="362.9545"
     cy="28.775837"
     r="2" />
  <circle
     style="fill:none;fill-opacity:1;stroke:#ff0000;stroke-width:0.264583;stroke-miterlimit:4;stroke-dasharray:none"
     id="path898-0-7-6-5"
     cx="308.56522"
     cy="28.806507"
     r="2" />
  <rect
     style="fill:none;fill-opacity:1;stroke:none;stroke-width:0.264583;stroke-linejoin:bevel;stroke-miterlimit:4;stroke-dasharray:none;paint-order:stroke fill markers"
     id="rect1174"
     width="5"
     height="6"
     x="373.03735"
     y="27.440971"
     ry="1.386144" />
  <rect
     style="fill:none;fill-opacity:1;stroke:none;stroke-width:0.264583;stroke-linejoin:bevel;stroke-miterlimit:4;stroke-dasharray:none;paint-order:stroke fill markers"
     id="rect1176"
     width="14.707229"
     height="10.807228"
     x="367.25784"
     y="108.30723"
     ry="1.386144" />
  <rect
     style="fill:none;fill-opacity:1;stroke:#ff0000;stroke-width:0.0529167;stroke-linejoin:bevel;stroke-miterlimit:4;stroke-dasharray:none;stroke-opacity:1;paint-order:stroke fill markers"
     id="rect1180"
     width="2.5"
     height="2.5"
     x="373.76465"
     y="26.735161" />
  <rect
     style="fill:none;fill-opacity:1;stroke:#ff0000;stroke-width:0.0529167;stroke-linejoin:bevel;stroke-miterlimit:4;stroke-dasharray:none;stroke-opacity:1;paint-order:stroke fill markers"
     id="rect1180-6"
     width="2.5"
     height="2.5"
     x="377.90924"
     y="32.25563" />
  <rect
     style="fill:none;fill-opacity:1;stroke:#ff0000;stroke-width:0.0529167;stroke-linejoin:bevel;stroke-miterlimit:4;stroke-dasharray:none;stroke-opacity:1;paint-order:stroke fill markers"
     id="rect1180-1"
     width="2.5"
     height="2.5"
     x="373.88211"
     y="32.279129" />
  <rect
     style="fill:none;fill-opacity:1;stroke:#ff0000;stroke-width:0.0529167;stroke-linejoin:bevel;stroke-miterlimit:4;stroke-dasharray:none;stroke-opacity:1;paint-order:stroke fill markers"
     id="rect1180-1-4"
     width="2.5"
     height="2.5"
     x="377.88571"
     y="26.688156" />
  <text
     xml:space="preserve"
     style="font-style:normal;font-weight:normal;font-size:10.5833px;line-height:1.25;font-family:sans-serif;white-space:pre;inline-size:36.494;fill:none;fill-opacity:1;stroke:#0000ff;stroke-width:0.264583"
     x="378.63779"
     y="136.09164"
     id="text1255"
     transform="matrix(-0.02219186,-1.2103713,1.3940525,-0.0156516,237.04096,604.53828)"><tspan
       x="378.63779"
       y="136.09164"><tspan
         style="fill:none;fill-opacity:1;stroke:#0000ff;stroke-width:0.264583">Morse</tspan></tspan></text>
  <text
     xml:space="preserve"
     style="font-style:normal;font-weight:normal;font-size:10.5833px;line-height:0;font-family:sans-serif;fill:none;fill-opacity:1;stroke:#0000ff;stroke-width:0.264583;stroke-opacity:1"
     x="13.82021"
     y="300.94519"
     id="text1259"><tspan
       sodipodi:role="line"
       x="13.82021"
       y="300.94519"
       style="font-size:3.88056px;line-height:1.05;fill:none;fill-opacity:1;stroke:#0000ff;stroke-width:0.264583;stroke-opacity:1"
       id="tspan1261">Escape room - Micro</tspan><tspan
       sodipodi:role="line"
       x="13.82021"
       y="305.01978"
       style="font-size:3.88056px;line-height:1.05;fill:none;fill-opacity:1;stroke:#0000ff;stroke-width:0.264583;stroke-opacity:1"
       id="tspan1265">Jeff Mabilde - Sarah Loos</tspan></text>
  <path
     style="fill:#0000ff;stroke:#0000ff;stroke-width:0.264583px;stroke-linecap:butt;stroke-linejoin:miter;stroke-opacity:1"
     d="m 264.47773,266.00001 c 0,45.99999 0,45.99999 0,45.99999"
     id="path1280" />
  <text
     xml:space="preserve"
     style="font-style:normal;font-weight:normal;font-size:1.5px;line-height:1.25;font-family:sans-serif;fill:none;fill-opacity:1;stroke:#0000ff;stroke-width:0.264583;"
     x="265.93689"
     y="284.54318"
     id="text1284"><tspan
       sodipodi:role="line"
       id="tspan1282"
       x="265.93689"
       y="284.54318"
       style="font-size:1.5px;stroke-width:0.264583;stroke:#0000ff;fill:none;">4.6 mm</tspan></text>
  <path
     style="fill:none;stroke:#0000ff;stroke-width:0.264583px;stroke-linecap:butt;stroke-linejoin:miter;stroke-opacity:1"
     d="m 292.13291,235.90804 c -156.00001,0 -156.00001,0 -156.00001,0"
     id="path1286" />
  <text
     xml:space="preserve"
     style="font-style:normal;font-weight:normal;font-size:1.5px;line-height:1.25;font-family:sans-serif;fill:none;fill-opacity:1;stroke:#0000ff;stroke-width:0.264583;stroke-opacity:1"
     x="208.25742"
     y="238.16039"
     id="text1290"><tspan
       sodipodi:role="line"
       id="tspan1288"
       x="208.25742"
       y="238.16039"
       style="font-size:1.5px;fill:none;stroke:#0000ff;stroke-width:0.264583;stroke-opacity:1">156 mm</tspan></text>
  <path
     style="fill:none;stroke:#0000ff;stroke-width:0.264583px;stroke-linecap:butt;stroke-linejoin:miter;stroke-opacity:1"
     d="m 0.26580399,228.59843 c 135.99999601,0 135.99999601,0 135.99999601,0"
     id="path1292" />
  <text
     xml:space="preserve"
     style="font-style:normal;font-weight:normal;font-size:1.5px;line-height:1.25;font-family:sans-serif;fill:none;fill-opacity:1;stroke:#0000ff;stroke-width:0.264583;stroke-opacity:1"
     x="65.294746"
     y="230.86517"
     id="text1290-9"><tspan
       sodipodi:role="line"
       id="tspan1288-9"
       x="65.294746"
       y="230.86517"
       style="font-size:1.5px;fill:none;stroke:#0000ff;stroke-width:0.264583;stroke-opacity:1">136 mm</tspan></text>
</svg>
