<?xml version="1.0" encoding="UTF-8" standalone="no"?>
<svg
   xmlns:dc="http://purl.org/dc/elements/1.1/"
   xmlns:cc="http://creativecommons.org/ns#"
   xmlns:rdf="http://www.w3.org/1999/02/22-rdf-syntax-ns#"
   xmlns:svg="http://www.w3.org/2000/svg"
   xmlns="http://www.w3.org/2000/svg"
   xmlns:sodipodi="http://sodipodi.sourceforge.net/DTD/sodipodi-0.dtd"
   xmlns:inkscape="http://www.inkscape.org/namespaces/inkscape"
   width="606mm"
   height="403mm"
   viewBox="0 0 606 403"
   version="1.1"
   preserveAspectRatio="xMidYMid meet"
   id="svg9"
   sodipodi:docname="BehuizingSpeaker.svg"
   inkscape:version="1.0.2-2 (e86c870879, 2021-01-15)">
  <metadata
     id="metadata15">
    <rdf:RDF>
      <cc:Work
         rdf:about="">
        <dc:format>image/svg+xml</dc:format>
        <dc:type
           rdf:resource="http://purl.org/dc/dcmitype/StillImage" />
        <dc:title></dc:title>
      </cc:Work>
    </rdf:RDF>
  </metadata>
  <defs
     id="defs13" />
  <sodipodi:namedview
     pagecolor="#ffffff"
     bordercolor="#666666"
     borderopacity="1"
     objecttolerance="10"
     gridtolerance="10"
     guidetolerance="10"
     inkscape:pageopacity="0"
     inkscape:pageshadow="2"
     inkscape:window-width="1920"
     inkscape:window-height="1001"
     id="namedview11"
     showgrid="false"
     inkscape:zoom="1.089847"
     inkscape:cx="1715.8573"
     inkscape:cy="1188.2615"
     inkscape:window-x="-9"
     inkscape:window-y="-9"
     inkscape:window-maximized="1"
     inkscape:current-layer="svg9" />
  <path
     d="m 0,353 v 15.25 h 6 v 19.5 H 0 V 403 h 31.75 v -6 h 19.5 v 6 h 19.5 v -6 h 19.5 v 6 h 19.5 v -6 h 19.5 v 6 h 19.5 v -6 h 19.5 v 6 h 19.5 12.25 v -15.25 h -6 v -19.5 h 6 V 353 h -31.75 v 6 h -19.5 v -6 h -19.5 v 6 h -19.5 v -6 h -19.5 v 6 h -19.5 v -6 h -19.5 v 6 h -19.5 v -6 h -19.5 z"
     id="front_outsideCutPath"
     stroke="#FF0000"
     stroke-width="0.1"
     style="font-size:12px;fill:none;fill-rule:evenodd;stroke:#ff0000;stroke-width:0.1;stroke-linecap:round"
     vector-effect="non-scaling-stroke" />
  <path
     d="m 209,353 v 15.25 h -6 v 19.5 h 6 V 403 h 25.75 v -6 h 19.5 v 6 h 19.5 v -6 h 19.5 v 6 h 19.5 v -6 h 19.5 v 6 h 19.5 v -6 h 19.5 v 6 h 19.5 6.25 v -15.25 h 6 v -19.5 h -6 V 353 h -25.75 v 6 h -19.5 v -6 h -19.5 v 6 h -19.5 v -6 h -19.5 v 6 h -19.5 v -6 h -19.5 v 6 h -19.5 v -6 h -19.5 z"
     id="left_outsideCutPath"
     stroke="#FF0000"
     stroke-width="0.1"
     style="font-size:12px;fill:none;fill-rule:evenodd;stroke:#ff0000;stroke-width:0.1;stroke-linecap:round"
     vector-effect="non-scaling-stroke" />
  <path
     d="m 412,209 v 25.75 h -6 v 19.5 h 6 v 19.5 h -6 v 19.5 h 6 v 19.5 h -6 v 19.5 h 6 v 19.5 h -6 v 19.5 h 6 v 19.5 6.25 h 25.75 v 6 h 19.5 v -6 h 19.5 v 6 h 19.5 v -6 h 19.5 v 6 h 19.5 v -6 h 19.5 v 6 h 19.5 v -6 h 19.5 6.25 v -25.75 h 6 v -19.5 h -6 v -19.5 h 6 v -19.5 h -6 v -19.5 h 6 v -19.5 h -6 v -19.5 h 6 v -19.5 h -6 V 215.25 209 h -25.75 v -6 h -19.5 v 6 h -19.5 v -6 h -19.5 v 6 h -19.5 v -6 h -19.5 v 6 h -19.5 v -6 h -19.5 v 6 h -19.5 z"
     id="top_outsideCutPath"
     stroke="#FF0000"
     stroke-width="0.1"
     style="font-size:12px;fill:none;fill-rule:evenodd;stroke:#ff0000;stroke-width:0.1;stroke-linecap:round"
     vector-effect="non-scaling-stroke" />
  <path
     d="m 0,300 v 15.25 h 6 v 19.5 H 0 V 350 h 31.75 v -6 h 19.5 v 6 h 19.5 v -6 h 19.5 v 6 h 19.5 v -6 h 19.5 v 6 h 19.5 v -6 h 19.5 v 6 h 19.5 12.25 v -15.25 h -6 v -19.5 h 6 V 300 h -31.75 v 6 h -19.5 v -6 h -19.5 v 6 h -19.5 v -6 h -19.5 v 6 h -19.5 v -6 h -19.5 v 6 h -19.5 v -6 h -19.5 z"
     id="back_outsideCutPath"
     stroke="#FF0000"
     stroke-width="0.1"
     style="font-size:12px;fill:none;fill-rule:evenodd;stroke:#ff0000;stroke-width:0.1;stroke-linecap:round"
     vector-effect="non-scaling-stroke" />
  <path
     d="m 209,300 v 15.25 h -6 v 19.5 h 6 V 350 h 25.75 v -6 h 19.5 v 6 h 19.5 v -6 h 19.5 v 6 h 19.5 v -6 h 19.5 v 6 h 19.5 v -6 h 19.5 v 6 h 19.5 6.25 v -15.25 h 6 v -19.5 h -6 V 300 h -25.75 v 6 h -19.5 v -6 h -19.5 v 6 h -19.5 v -6 h -19.5 v 6 h -19.5 v -6 h -19.5 v 6 h -19.5 v -6 h -19.5 z"
     id="right_outsideCutPath"
     stroke="#FF0000"
     stroke-width="0.1"
     style="font-size:12px;fill:none;fill-rule:evenodd;stroke:#ff0000;stroke-width:0.1;stroke-linecap:round"
     vector-effect="non-scaling-stroke" />
  <path
     d="m 412,6 v 25.75 h -6 v 19.5 h 6 v 19.5 h -6 v 19.5 h 6 v 19.5 h -6 v 19.5 h 6 v 19.5 h -6 v 19.5 h 6 v 19.5 6.25 h 25.75 v 6 h 19.5 v -6 h 19.5 v 6 h 19.5 v -6 h 19.5 v 6 h 19.5 v -6 h 19.5 v 6 h 19.5 v -6 h 19.5 6.25 v -25.75 h 6 v -19.5 h -6 v -19.5 h 6 v -19.5 h -6 v -19.5 h 6 v -19.5 h -6 v -19.5 h 6 v -19.5 h -6 V 12.25 6 H 574.25 V 0 h -19.5 v 6 h -19.5 V 0 h -19.5 v 6 h -19.5 V 0 h -19.5 v 6 h -19.5 V 0 h -19.5 v 6 h -19.5 z"
     id="bottom_outsideCutPath"
     stroke="#FF0000"
     stroke-width="0.1"
     style="font-size:12px;fill:none;fill-rule:evenodd;stroke:#ff0000;stroke-width:0.1;stroke-linecap:round"
     vector-effect="non-scaling-stroke" />
  <rect
     style="fill:none;stroke:#ff0000;stroke-width:0.264583"
     id="rect23"
     width="18"
     height="18"
     x="462.23611"
     y="121.14277" />
  <rect
     style="fill:none;stroke:#ff0000;stroke-width:0.264583"
     id="rect25"
     width="45"
     height="20"
     x="528.51257"
     y="158.79156" />
  <rect
     style="fill:none;stroke:#ff0000;stroke-width:0.264583"
     id="rect27"
     width="42"
     height="42"
     x="528.51257"
     y="26.791553" />
</svg>
